<?xml version="1.0" encoding="utf-8"?>
<!-- Generator: Adobe Illustrator 23.0.1, SVG Export Plug-In . SVG Version: 6.00 Build 0)  -->
<svg version="1.1" id="Layer_2" xmlns="http://www.w3.org/2000/svg" xmlns:xlink="http://www.w3.org/1999/xlink" x="0px" y="0px"
	 width="878.74px" height="350.17px" viewBox="0 0 878.74 350.17" style="enable-background:new 0 0 878.74 350.17;"
	 xml:space="preserve">
<g>
	<path d="M418.96,325.81c7.32-0.51,14.59-1.84,21.49-4.23c6.9-2.38,13.38-5.9,19.06-10.43c5.69-4.52,10.52-10.03,14.5-16.09
		c3.99-6.06,7.1-12.67,9.55-19.51c4.85-13.73,7.11-28.28,7.91-42.83c0.81-14.58,0.24-29.23-1.32-43.77
		c-3.14-29.09-9.98-57.76-19.56-85.37c-4.85-13.78-10.49-27.3-17.33-40.13c-3.42-6.41-7.13-12.66-11.38-18.45
		c-2.12-2.9-4.38-5.67-6.82-8.22c-2.44-2.54-5.07-4.86-7.93-6.62c-2.85-1.75-5.9-2.89-8.89-2.64c-3.08,0.15-6.2,1.38-9.08,3.15
		c-2.87,1.79-5.59,4.02-8.04,6.57c-2.46,2.53-4.8,5.24-6.93,8.14c-4.32,5.74-8.1,11.95-11.52,18.36
		c-3.43,6.41-6.52,13.02-9.36,19.74c-5.68,13.45-10.33,27.35-14.2,41.46c-3.92,14.1-6.98,28.44-9.23,42.91
		c-1.14,7.23-1.98,14.51-2.66,21.79c-0.66,7.29-1.12,14.6-1.22,21.91c-0.21,14.62,0.66,29.3,3.44,43.65
		c1.39,7.17,3.3,14.24,5.83,21.08c2.53,6.83,5.74,13.43,9.78,19.48c4.06,6.04,8.95,11.51,14.63,16.04
		c5.67,4.54,12.12,8.09,18.98,10.51l-0.41,1.55c-10.37-1.89-20.52-5.04-30.09-9.46c-9.58-4.42-18.51-10.21-26.6-16.98
		c-16.18-13.61-28.75-31.13-38.09-50.01c-9.36-18.93-15.72-39.24-19.83-59.93c-2.06-10.35-3.44-20.83-4.26-31.36
		c-0.79-10.53-0.95-21.13-0.08-31.75c0.23-2.65,0.54-5.31,0.98-7.97c0.44-2.66,1.01-5.32,1.94-8c0.49-1.35,1.02-2.69,2.01-4.09
		c0.52-0.68,1.15-1.45,2.31-2.02c0.49-0.17,1.01-0.38,1.49-0.44c0.46-0.04,0.98-0.15,1.4-0.1c1.78,0.06,3.24,0.54,4.59,1.09
		c1.36,0.55,2.6,1.21,3.79,1.91c4.74,2.85,8.82,6.32,12.75,9.91c3.91,3.61,7.6,7.42,11.14,11.35c7.08,7.86,13.57,16.2,19.66,24.8
		c6.08,8.61,11.77,17.5,16.94,26.67c10.36,18.33,19.07,37.63,25.35,57.73c3.1,10.06,5.55,20.32,7.22,30.7
		c1.71,10.38,2.5,20.9,2.35,31.39l-0.5,0c-0.12-5.23-0.47-10.45-1.05-15.64c-0.55-5.19-1.31-10.36-2.3-15.49
		c-1.95-10.26-4.66-20.35-8-30.23c-6.57-19.8-15.54-38.75-26.12-56.7c-10.63-17.91-22.71-35.03-36.7-50.38
		c-3.49-3.83-7.12-7.54-10.92-11.02c-3.8-3.46-7.79-6.77-12.05-9.31c-1.06-0.62-2.15-1.19-3.22-1.61c-1.07-0.45-2.16-0.74-3-0.75
		c-0.24-0.04-0.37,0.04-0.56,0.03c-0.17,0.02-0.26,0.1-0.39,0.11c-0.03,0.01-0.31,0.23-0.56,0.6c-0.53,0.73-1.01,1.84-1.4,2.96
		c-0.78,2.27-1.3,4.76-1.72,7.26c-0.42,2.51-0.72,5.06-0.95,7.62c-0.89,10.27-0.69,20.69-0.04,31.05
		c0.67,10.37,2.01,20.7,3.82,30.94c3.66,20.46,9.57,40.61,18.44,59.44c4.44,9.4,9.64,18.46,15.72,26.9
		c6.07,8.45,13.09,16.22,20.98,23c7.88,6.8,16.7,12.49,26.12,16.91c9.42,4.44,19.47,7.47,29.72,9.28l-0.41,1.55
		c-7.04-2.44-13.68-6.05-19.53-10.67c-5.86-4.61-10.91-10.21-15.1-16.36c-4.2-6.14-7.6-12.82-10.28-19.75
		c-2.69-6.93-4.74-14.09-6.26-21.35c-3.04-14.53-4.21-29.38-4.25-44.18c-0.01-14.81,1.16-29.61,3.25-44.26
		c2.11-14.65,5.03-29.18,8.83-43.5c3.81-14.31,8.43-28.42,14.11-42.13c2.84-6.86,5.95-13.62,9.42-20.21
		c3.47-6.59,7.31-13.03,11.81-19.08c2.21-3.05,4.67-5.95,7.32-8.71c2.63-2.77,5.62-5.29,8.97-7.41c3.35-2.09,7.25-3.74,11.54-3.99
		c2.14-0.2,4.39,0.18,6.38,0.8c2.01,0.64,3.86,1.55,5.57,2.6c3.42,2.11,6.34,4.71,8.99,7.47c2.65,2.77,5.05,5.71,7.28,8.75
		c4.47,6.08,8.29,12.52,11.81,19.09c6.96,13.19,12.59,26.96,17.44,40.96c4.84,14.01,8.83,28.3,11.98,42.77
		c3.16,14.47,5.53,29.11,6.93,43.86c1.38,14.74,1.85,29.61,0.76,44.43c-1.11,14.78-3.7,29.58-8.94,43.56
		c-2.64,6.96-5.98,13.7-10.21,19.86c-4.22,6.16-9.4,11.69-15.36,16.19c-5.96,4.5-12.7,7.91-19.77,10.15
		c-7.08,2.26-14.47,3.32-21.84,3.6L418.96,325.81z"/>
</g>
<g>
	<path d="M344.14,324.94c-5.88-3.15-11.64-6.5-17.64-9.37c-5.91-3.06-12.02-5.71-18.03-8.54c-12.19-5.31-24.6-10.07-37.14-14.45
		c-12.59-4.23-25.27-8.21-38.1-11.65c-12.82-3.49-25.74-6.56-38.72-9.4c-6.5-1.36-13-2.75-19.54-3.95
		c-6.52-1.31-13.07-2.45-19.61-3.6c-13.11-2.24-26.28-4.11-39.48-5.74c-13.2-1.71-26.44-3.02-39.7-4.22
		c-13.25-1.16-26.56-2.06-39.85-2.4l0.16-2.08c11.48,2.01,22.89,4.19,34.28,6.54c11.39,2.33,22.75,4.79,34.09,7.4
		c11.34,2.57,22.66,5.28,33.89,8.37c5.63,1.48,11.21,3.17,16.81,4.79c2.79,0.85,5.56,1.75,8.33,2.65c2.78,0.89,5.54,1.81,8.29,2.75
		c22,7.45,43.78,15.56,65.91,22.32c11.05,3.4,22.24,6.32,33.61,8.36l4.27,0.75l4.29,0.64c2.86,0.47,5.73,0.74,8.61,1.08
		c2.88,0.35,5.77,0.49,8.66,0.75l8.69,0.53l0,0.5c-2.91,0.03-5.82,0.12-8.73,0.1c-2.91-0.09-5.83-0.08-8.74-0.26
		c-2.91-0.17-5.83-0.29-8.73-0.59l-4.36-0.4l-4.34-0.57c-11.59-1.53-23.02-4.15-34.26-7.26c-11.23-3.15-22.34-6.67-33.35-10.4
		c-11.03-3.68-22.01-7.5-32.94-11.41c-21.76-7.95-43.88-14.92-66.34-20.79c-11.23-2.91-22.55-5.51-33.93-7.8
		c-11.37-2.28-22.81-4.35-34.28-5.96l0.16-2.08c6.71-0.06,13.37,0.08,20.06,0.26c6.68,0.17,13.36,0.46,20.03,0.8
		c13.35,0.68,26.67,1.84,39.97,3.19c26.58,2.91,53.08,6.85,79.25,12.52l9.8,2.2c3.26,0.74,6.5,1.6,9.75,2.4l4.87,1.22l4.85,1.31
		c3.23,0.89,6.47,1.73,9.68,2.67c12.86,3.75,25.58,7.95,38.13,12.62c12.54,4.71,24.81,10.11,36.87,15.91
		c5.95,3.06,11.95,6.02,17.71,9.44c5.87,3.21,11.47,6.87,17.11,10.43L344.14,324.94z"/>
</g>
<g>
	<path d="M464.42,317.31l4.16-1.8c1.38-0.61,2.78-1.15,4.11-1.87c2.67-1.39,5.4-2.65,7.94-4.28c1.28-0.78,2.58-1.53,3.85-2.33
		l3.69-2.57l1.84-1.28c0.6-0.44,1.18-0.92,1.77-1.38l3.52-2.78c9.2-7.67,16.97-16.88,23.62-26.77c3.21-5.03,6.29-10.15,8.92-15.51
		c2.76-5.29,5.08-10.81,7.3-16.35c4.28-11.16,7.65-22.67,10.2-34.38c2.65-11.68,4.35-23.58,5.6-35.51
		c1.24-11.94,1.73-23.96,1.63-35.97c-0.03-3-0.11-6.01-0.22-9.01c-0.15-3-0.23-6.02-0.5-8.93c-0.28-2.9-0.7-5.84-1.59-8.33
		c-0.24-0.59-0.49-1.19-0.79-1.62c-0.28-0.47-0.6-0.77-0.81-0.87c-0.21-0.1-0.36-0.14-0.75-0.04c-0.37,0.1-0.86,0.34-1.35,0.72
		c-0.98,0.71-1.95,1.75-2.83,2.85c-0.89,1.11-1.72,2.3-2.53,3.53c-1.61,2.45-3.08,5.05-4.47,7.69c-2.78,5.29-5.25,10.79-7.57,16.34
		c-9.19,22.29-16.29,45.51-21.72,69.05c-1.35,5.89-2.57,11.81-3.68,17.74c-1.08,5.94-2.06,11.9-2.92,17.87
		c-1.71,11.94-2.96,23.95-3.33,35.93c-0.22,5.99-0.16,11.97,0.24,17.89c0.21,2.96,0.55,5.89,1.06,8.78c0.52,2.88,1.15,5.73,2.13,8.4
		c0.96,2.67,2.23,5.2,3.97,7.19c1.73,1.99,3.92,3.4,6.45,3.86c1.26,0.24,2.58,0.3,3.92,0.2c1.35-0.12,2.7-0.4,4.06-0.77
		c0.68-0.22,1.34-0.4,2.03-0.67l2.08-0.81c1.38-0.55,2.78-1.05,4.15-1.64c10.92-4.78,21.33-10.86,31.22-17.72
		c9.92-6.81,19.42-14.31,28.44-22.36l0.35,0.35c-4.16,4.43-8.6,8.56-13.14,12.59c-4.55,4.02-9.21,7.93-14.09,11.57
		c-2.4,1.87-4.91,3.59-7.39,5.37c-1.25,0.86-2.54,1.69-3.81,2.53c-1.27,0.85-2.55,1.68-3.86,2.46l-3.92,2.38
		c-1.33,0.76-2.68,1.48-4.01,2.23c-2.64,1.55-5.47,2.76-8.22,4.13c-1.4,0.64-2.84,1.19-4.25,1.79l-2.13,0.88
		c-0.71,0.3-1.5,0.54-2.26,0.8c-1.56,0.46-3.16,0.84-4.83,1.02c-1.67,0.16-3.4,0.15-5.12-0.17c-3.47-0.58-6.67-2.61-8.9-5.16
		c-2.27-2.56-3.75-5.54-4.88-8.53c-2.22-6.02-3.03-12.25-3.48-18.39c-0.44-6.16-0.29-12.3,0.05-18.39
		c1.63-24.4,6.84-48.18,12.52-71.72c2.86-11.77,6-23.48,9.41-35.11c3.45-11.62,7.04-23.21,11.35-34.58
		c2.14-5.69,4.43-11.33,7.07-16.86c1.33-2.76,2.73-5.5,4.35-8.16c0.82-1.33,1.69-2.64,2.66-3.91c0.99-1.27,2.05-2.52,3.48-3.63
		c0.7-0.56,1.55-1.08,2.63-1.41c1.05-0.35,2.51-0.34,3.66,0.25c1.16,0.56,1.9,1.42,2.44,2.21c0.57,0.81,0.92,1.61,1.27,2.41
		c0.64,1.6,1.02,3.17,1.35,4.73c0.33,1.56,0.54,3.11,0.73,4.66c0.38,3.11,0.49,6.14,0.69,9.18c0.15,3.04,0.28,6.09,0.35,9.14
		c0.56,24.36-1.37,48.85-6.73,72.72c-2.77,11.9-6.25,23.67-10.91,35.01c-4.69,11.32-10.43,22.24-17.47,32.29
		c-3.62,4.95-7.39,9.81-11.69,14.2c-2.05,2.28-4.34,4.33-6.56,6.44c-1.09,1.08-2.32,2-3.48,2.99c-1.19,0.96-2.33,1.98-3.56,2.9
		l-3.72,2.69c-0.62,0.44-1.23,0.91-1.87,1.33l-1.95,1.2l-3.9,2.4c-1.33,0.74-2.7,1.43-4.04,2.15c-2.66,1.5-5.5,2.63-8.27,3.88
		c-1.37,0.66-2.83,1.1-4.26,1.62l-4.29,1.51L464.42,317.31z"/>
</g>
<g>
	<path d="M620.6,269.15c1.3-2.31,2.45-4.69,3.3-7.15c0.42-1.23,0.74-2.48,0.87-3.72c0.14-1.23,0.09-2.48-0.35-3.46
		c-0.42-1-1.22-1.64-2.26-1.93c-1.04-0.28-2.24-0.24-3.43-0.04c-2.39,0.43-4.74,1.48-6.94,2.75c-4.4,2.57-8.36,5.99-11.81,9.81
		c-3.47,3.82-6.51,8.04-9.07,12.52c-1.28,2.26-2.47,4.53-3.39,6.86c-0.92,2.33-1.61,4.74-1.87,7.12c-0.27,2.34-0.14,4.77,0.78,6.37
		c0.46,0.79,1.02,1.32,1.76,1.62c0.75,0.3,1.72,0.34,2.77,0.15c2.11-0.39,4.36-1.54,6.41-2.96c2.08-1.41,4.04-3.09,5.9-4.9
		c1.86-1.81,3.61-3.76,5.3-5.77c1.69-2.01,3.29-4.11,4.79-6.28l1.52,1.01c-3.02,4.34-5.85,8.82-8.46,13.4
		c-1.28,2.31-2.49,4.65-3.55,7.05c-1.07,2.39-1.99,4.85-2.5,7.36c-0.25,1.25-0.38,2.51-0.27,3.7c0.1,1.19,0.51,2.28,1.27,3.03
		c0.74,0.78,1.81,1.23,2.97,1.48c1.17,0.24,2.42,0.31,3.68,0.26c5.08-0.25,10.2-1.68,15.2-3.21c10.02-3.19,19.86-7.11,29.71-10.98
		c9.86-3.88,19.68-7.88,29.51-11.87c19.67-7.99,39.52-15.6,59.62-22.52c20.09-6.94,40.41-13.26,61.02-18.5l0.15,0.48
		c-19.97,7.23-39.84,14.63-59.62,22.25c-19.77,7.63-39.47,15.46-59.28,23.07c-9.91,3.79-19.82,7.6-29.8,11.29
		c-9.99,3.64-20.06,7.16-30.45,9.81c-2.6,0.66-5.22,1.25-7.88,1.72c-2.66,0.47-5.37,0.82-8.14,0.81c-1.39-0.01-2.8-0.14-4.22-0.5
		c-1.4-0.37-2.86-1.04-3.92-2.25c-1.07-1.2-1.54-2.77-1.63-4.21c-0.1-1.46,0.1-2.86,0.4-4.2c1.33-5.35,3.84-10.11,6.41-14.78
		c2.57-4.68,5.43-9.17,8.26-13.68l1.52,1.01c-2.88,4.5-5.85,8.99-9.44,13.08c-1.79,2.05-3.71,4.02-5.89,5.78
		c-2.2,1.72-4.63,3.36-7.73,4.11c-1.54,0.35-3.32,0.45-5.09-0.15c-1.78-0.57-3.31-1.95-4.15-3.47c-0.87-1.52-1.27-3.12-1.45-4.65
		c-0.17-1.54-0.13-3.04,0.07-4.49c0.79-5.78,3.33-10.93,6.15-15.53c2.85-4.65,6.15-9.03,9.98-12.93c3.84-3.87,8.14-7.37,13.07-9.87
		c2.47-1.23,5.1-2.26,7.98-2.61c1.43-0.17,2.96-0.13,4.46,0.39c0.74,0.27,1.47,0.69,2.06,1.28c0.59,0.58,1.03,1.31,1.28,2.05
		c0.51,1.51,0.43,3.02,0.16,4.39c-0.27,1.39-0.73,2.69-1.28,3.93c-1.09,2.5-2.54,4.77-4.06,6.95L620.6,269.15z"/>
</g>
<g>
	<path d="M493.63,81.24c1.7-4.09,4.13-7.92,7.06-11.3c2.92-3.39,6.32-6.36,9.72-9.09c0.85-0.68,1.69-1.35,2.46-2.04
		c0.41-0.36,0.75-0.65,1.05-1.01c0.29-0.36,0.58-0.74,0.79-1.16c0.44-0.83,0.71-1.79,0.66-2.71c-0.05-0.92-0.49-1.78-1.32-1.96
		c-0.84-0.22-1.86,0.23-2.7,0.8c-0.86,0.59-1.61,1.36-2.32,2.17c-1.37,1.65-2.48,3.53-3.45,5.47l-2.15,4.3l0.64-4.88
		c0.24-1.86,0.28-3.73,0.2-5.57c-0.1-1.83-0.35-3.64-0.86-5.33c-0.26-0.84-0.59-1.64-1-2.34c-0.39-0.69-0.92-1.3-1.35-1.5
		c-0.21-0.11-0.32-0.1-0.39-0.08c-0.07,0.01-0.2,0.06-0.39,0.24c-0.38,0.35-0.78,1.06-1.06,1.83c-0.3,0.77-0.54,1.62-0.72,2.5
		c-0.09,0.44-0.17,0.88-0.24,1.34c-0.06,0.46-0.11,0.81-0.13,1.26c-0.09,1.7,0.19,3.56,0.49,5.4c0.67,3.71,1.58,7.49,2.11,11.33
		l-0.29,0.08c-1.49-3.57-3.01-7.09-4.15-10.86c-0.55-1.89-1.04-3.83-1.11-5.98c-0.03-0.52,0.01-1.13,0.07-1.62
		c0.05-0.5,0.12-1,0.2-1.51c0.17-1.01,0.4-2.03,0.76-3.06c0.4-1.02,0.88-2.08,1.9-3.06c0.51-0.48,1.25-0.93,2.14-1.04
		c0.89-0.11,1.76,0.16,2.37,0.54c1.24,0.78,1.88,1.8,2.41,2.77c0.5,0.99,0.84,2.01,1.1,3.02c0.99,4.06,0.58,8.16-0.45,11.96
		l-1.51-0.58c1.27-1.84,2.6-3.63,4.13-5.28c0.75-0.83,1.58-1.61,2.52-2.28c0.93-0.65,2.05-1.27,3.43-1.12
		c0.68,0.09,1.33,0.5,1.76,1.03c0.44,0.53,0.69,1.16,0.82,1.78c0.28,1.25,0.14,2.54-0.27,3.72c-0.2,0.6-0.48,1.17-0.82,1.7
		c-0.34,0.54-0.77,1.03-1.16,1.43c-0.8,0.84-1.63,1.59-2.46,2.33l-5.03,4.2c-1.64,1.42-3.25,2.84-4.77,4.37
		c-3.11,3-5.83,6.36-8.43,9.92L493.63,81.24z"/>
</g>
</svg>
